<svg xmlns="http://www.w3.org/2000/svg" viewBox="0 0 64 64" width="100%" height="100%">
  <defs>
    <linearGradient id="favBg" x1="0" y1="0" x2="1" y2="1">
      <stop offset="0%" stop-color="#1A1D2A"/>
      <stop offset="100%" stop-color="#0F1117"/>
    </linearGradient>
    <linearGradient id="favGold" x1="0" y1="0" x2="1" y2="1">
      <stop offset="0%" stop-color="#FFEBB0"/>
      <stop offset="50%" stop-color="#D4A853"/>
      <stop offset="100%" stop-color="#A47424"/>
    </linearGradient>
  </defs>

  <!-- Dark Rounded Tile -->
  <rect x="2" y="2" width="60" height="60" rx="14" fill="url(#favBg)" stroke="url(#favGold)" stroke-width="1.8"/>

  <!-- Document Silhouette -->
  <path d="M 18 13 L 37 13 L 46 22 L 46 49 A 3 3 0 0 1 43 52 L 18 52 A 3 3 0 0 1 15 49 L 15 16 A 3 3 0 0 1 18 13 Z"
        fill="#141722" stroke="url(#favGold)" stroke-width="2"/>

  <!-- Folded Corner -->
  <path d="M 37 13 L 37 22 L 46 22 Z" fill="#232838" stroke="url(#favGold)" stroke-width="1.5"/>

  <!-- Content lines -->
  <line x1="21" y1="23" x2="31" y2="23" stroke="#D4A853" stroke-width="2" stroke-linecap="round"/>
  <line x1="21" y1="29" x2="40" y2="29" stroke="#464F6B" stroke-width="2" stroke-linecap="round"/>
  <line x1="21" y1="35" x2="33" y2="35" stroke="#464F6B" stroke-width="2" stroke-linecap="round"/>

  <!-- Gold Seal with Star -->
  <circle cx="41" cy="43" r="9" fill="url(#favGold)"/>
  <circle cx="41" cy="43" r="7.5" fill="#0F1117"/>
  <path d="M 41 38.5 L 42.2 41.5 L 45 41.8 L 42.9 43.8 L 43.5 46.5 L 41 45 L 38.5 46.5 L 39.1 43.8 L 37 41.8 L 39.8 41.5 Z" fill="url(#favGold)"/>
</svg>
